<mxfile host="app.diagrams.net" modified="2024-01-31T10:28:33.810Z" agent="Mozilla/5.0 (Windows NT 10.0; Win64; x64) AppleWebKit/537.36 (KHTML, like Gecko) Chrome/121.0.0.0 Safari/537.36" etag="U1msjNQqCiWT55s77yix" version="23.0.2" type="github">
  <diagram id="prtHgNgQTEPvFCAcTncT" name="Page-1">
    <mxGraphModel dx="821" dy="753" grid="1" gridSize="10" guides="1" tooltips="1" connect="1" arrows="1" fold="1" page="1" pageScale="1" pageWidth="1169" pageHeight="827" math="0" shadow="0">
      <root>
        <mxCell id="0" />
        <mxCell id="1" parent="0" />
        <mxCell id="dNxyNK7c78bLwvsdeMH5-19" value="Pool" style="swimlane;html=1;childLayout=stackLayout;resizeParent=1;resizeParentMax=0;horizontal=0;startSize=20;horizontalStack=0;" parent="1" vertex="1">
          <mxGeometry x="120" y="120" width="820" height="480" as="geometry" />
        </mxCell>
        <mxCell id="dNxyNK7c78bLwvsdeMH5-27" value="" style="edgeStyle=orthogonalEdgeStyle;rounded=0;orthogonalLoop=1;jettySize=auto;html=1;endArrow=classic;endFill=1;startArrow=none;startFill=0;" parent="dNxyNK7c78bLwvsdeMH5-19" source="dNxyNK7c78bLwvsdeMH5-24" target="dNxyNK7c78bLwvsdeMH5-26" edge="1">
          <mxGeometry relative="1" as="geometry" />
        </mxCell>
        <mxCell id="dNxyNK7c78bLwvsdeMH5-20" value="Client&lt;br&gt;Media Team" style="swimlane;html=1;startSize=20;horizontal=0;" parent="dNxyNK7c78bLwvsdeMH5-19" vertex="1">
          <mxGeometry x="20" width="800" height="120" as="geometry" />
        </mxCell>
        <mxCell id="dNxyNK7c78bLwvsdeMH5-25" value="" style="edgeStyle=orthogonalEdgeStyle;rounded=0;orthogonalLoop=1;jettySize=auto;html=1;" parent="dNxyNK7c78bLwvsdeMH5-20" source="dNxyNK7c78bLwvsdeMH5-23" target="dNxyNK7c78bLwvsdeMH5-24" edge="1">
          <mxGeometry relative="1" as="geometry" />
        </mxCell>
        <mxCell id="dNxyNK7c78bLwvsdeMH5-23" value="" style="ellipse;whiteSpace=wrap;html=1;" parent="dNxyNK7c78bLwvsdeMH5-20" vertex="1">
          <mxGeometry x="33" y="40" width="40" height="40" as="geometry" />
        </mxCell>
        <mxCell id="dNxyNK7c78bLwvsdeMH5-24" value="Request Set up&lt;br&gt;Media Booking" style="rounded=0;whiteSpace=wrap;html=1;fontFamily=Helvetica;fontSize=12;fontColor=#000000;align=center;" parent="dNxyNK7c78bLwvsdeMH5-20" vertex="1">
          <mxGeometry x="103" y="30" width="100" height="60" as="geometry" />
        </mxCell>
        <mxCell id="dNxyNK7c78bLwvsdeMH5-33" value="" style="edgeStyle=orthogonalEdgeStyle;rounded=0;orthogonalLoop=1;jettySize=auto;html=1;endArrow=classic;endFill=1;" parent="dNxyNK7c78bLwvsdeMH5-20" source="dNxyNK7c78bLwvsdeMH5-30" target="dNxyNK7c78bLwvsdeMH5-32" edge="1">
          <mxGeometry relative="1" as="geometry" />
        </mxCell>
        <mxCell id="dNxyNK7c78bLwvsdeMH5-30" value="Business&lt;br&gt;configures&lt;br&gt;Module" style="rounded=0;whiteSpace=wrap;html=1;fontFamily=Helvetica;fontSize=12;fontColor=#000000;align=center;" parent="dNxyNK7c78bLwvsdeMH5-20" vertex="1">
          <mxGeometry x="519" y="30" width="80" height="60" as="geometry" />
        </mxCell>
        <mxCell id="dNxyNK7c78bLwvsdeMH5-32" value="" style="ellipse;whiteSpace=wrap;html=1;" parent="dNxyNK7c78bLwvsdeMH5-20" vertex="1">
          <mxGeometry x="666" y="40" width="40" height="40" as="geometry" />
        </mxCell>
        <mxCell id="dNxyNK7c78bLwvsdeMH5-21" value="Event Services &lt;br&gt;Support Team" style="swimlane;html=1;startSize=20;horizontal=0;" parent="dNxyNK7c78bLwvsdeMH5-19" vertex="1">
          <mxGeometry x="20" y="120" width="800" height="120" as="geometry" />
        </mxCell>
        <mxCell id="dNxyNK7c78bLwvsdeMH5-29" value="" style="edgeStyle=orthogonalEdgeStyle;rounded=0;orthogonalLoop=1;jettySize=auto;html=1;endArrow=classic;endFill=1;entryX=0;entryY=0.5;entryDx=0;entryDy=0;" parent="dNxyNK7c78bLwvsdeMH5-21" source="dNxyNK7c78bLwvsdeMH5-26" target="orzJr2JAbaMpw1yVr_6s-2" edge="1">
          <mxGeometry relative="1" as="geometry">
            <mxPoint x="240" y="60" as="targetPoint" />
          </mxGeometry>
        </mxCell>
        <mxCell id="dNxyNK7c78bLwvsdeMH5-26" value="Open &lt;br&gt;Module &lt;br&gt;in BO" style="rounded=0;whiteSpace=wrap;html=1;fontFamily=Helvetica;fontSize=12;fontColor=#000000;align=center;" parent="dNxyNK7c78bLwvsdeMH5-21" vertex="1">
          <mxGeometry x="113" y="30" width="80" height="60" as="geometry" />
        </mxCell>
        <mxCell id="uuwwUCo8V9RNHKWbGGmZ-5" value="" style="edgeStyle=orthogonalEdgeStyle;rounded=0;orthogonalLoop=1;jettySize=auto;html=1;" edge="1" parent="dNxyNK7c78bLwvsdeMH5-21" source="pjozMHKdjuDKzzugaOkP-6" target="pjozMHKdjuDKzzugaOkP-9">
          <mxGeometry relative="1" as="geometry" />
        </mxCell>
        <mxCell id="pjozMHKdjuDKzzugaOkP-6" value="Configure&lt;br&gt;Communications&lt;br&gt;TGC" style="rounded=0;whiteSpace=wrap;html=1;fontFamily=Helvetica;fontSize=12;fontColor=#000000;align=center;" parent="dNxyNK7c78bLwvsdeMH5-21" vertex="1">
          <mxGeometry x="366" y="27" width="100" height="63" as="geometry" />
        </mxCell>
        <mxCell id="pjozMHKdjuDKzzugaOkP-9" value="Test" style="rounded=0;whiteSpace=wrap;html=1;fontFamily=Helvetica;fontSize=12;fontColor=#000000;align=center;" parent="dNxyNK7c78bLwvsdeMH5-21" vertex="1">
          <mxGeometry x="510" y="27" width="100" height="63" as="geometry" />
        </mxCell>
        <mxCell id="orzJr2JAbaMpw1yVr_6s-2" value="Create&lt;br&gt;Authorisation&amp;nbsp;&lt;br&gt;groups" style="rounded=0;whiteSpace=wrap;html=1;fontFamily=Helvetica;fontSize=12;fontColor=#000000;align=center;" parent="dNxyNK7c78bLwvsdeMH5-21" vertex="1">
          <mxGeometry x="229" y="30" width="80" height="60" as="geometry" />
        </mxCell>
        <mxCell id="uuwwUCo8V9RNHKWbGGmZ-6" value="" style="edgeStyle=orthogonalEdgeStyle;rounded=0;orthogonalLoop=1;jettySize=auto;html=1;endArrow=classic;endFill=1;entryX=0.01;entryY=0.571;entryDx=0;entryDy=0;entryPerimeter=0;" edge="1" parent="dNxyNK7c78bLwvsdeMH5-21" source="orzJr2JAbaMpw1yVr_6s-2" target="pjozMHKdjuDKzzugaOkP-6">
          <mxGeometry relative="1" as="geometry">
            <mxPoint x="350" y="60" as="targetPoint" />
            <mxPoint x="314" y="60" as="sourcePoint" />
          </mxGeometry>
        </mxCell>
        <mxCell id="dNxyNK7c78bLwvsdeMH5-22" value="FAME DB dev (Flo)" style="swimlane;html=1;startSize=20;horizontal=0;" parent="dNxyNK7c78bLwvsdeMH5-19" vertex="1">
          <mxGeometry x="20" y="240" width="800" height="120" as="geometry" />
        </mxCell>
        <mxCell id="dNxyNK7c78bLwvsdeMH5-34" value="Bind &lt;br&gt;profiles through script" style="rounded=0;whiteSpace=wrap;html=1;fontFamily=Helvetica;fontSize=12;fontColor=#000000;align=center;" parent="dNxyNK7c78bLwvsdeMH5-22" vertex="1">
          <mxGeometry x="191" y="20" width="80" height="60" as="geometry" />
        </mxCell>
        <mxCell id="pjozMHKdjuDKzzugaOkP-1" value="ACCR team" style="swimlane;html=1;startSize=20;horizontal=0;" parent="dNxyNK7c78bLwvsdeMH5-19" vertex="1">
          <mxGeometry x="20" y="360" width="800" height="120" as="geometry" />
        </mxCell>
        <mxCell id="pjozMHKdjuDKzzugaOkP-3" value="Configure&lt;br&gt;Accred" style="rounded=0;whiteSpace=wrap;html=1;fontFamily=Helvetica;fontSize=12;fontColor=#000000;align=center;" parent="pjozMHKdjuDKzzugaOkP-1" vertex="1">
          <mxGeometry x="261" y="20" width="80" height="60" as="geometry" />
        </mxCell>
        <mxCell id="pjozMHKdjuDKzzugaOkP-2" value="" style="edgeStyle=orthogonalEdgeStyle;rounded=0;orthogonalLoop=1;jettySize=auto;html=1;endArrow=classic;endFill=1;entryX=0.5;entryY=1;entryDx=0;entryDy=0;" parent="dNxyNK7c78bLwvsdeMH5-19" source="pjozMHKdjuDKzzugaOkP-3" target="pjozMHKdjuDKzzugaOkP-6" edge="1">
          <mxGeometry relative="1" as="geometry">
            <mxPoint x="380" y="410" as="targetPoint" />
          </mxGeometry>
        </mxCell>
        <mxCell id="pjozMHKdjuDKzzugaOkP-12" value="" style="edgeStyle=orthogonalEdgeStyle;rounded=0;orthogonalLoop=1;jettySize=auto;html=1;endArrow=classic;endFill=1;exitX=0.5;exitY=0;exitDx=0;exitDy=0;entryX=0.5;entryY=1;entryDx=0;entryDy=0;" parent="dNxyNK7c78bLwvsdeMH5-19" source="pjozMHKdjuDKzzugaOkP-9" target="dNxyNK7c78bLwvsdeMH5-30" edge="1">
          <mxGeometry relative="1" as="geometry">
            <mxPoint x="554" y="133" as="sourcePoint" />
            <mxPoint x="604" y="133" as="targetPoint" />
            <Array as="points">
              <mxPoint x="579" y="147" />
            </Array>
          </mxGeometry>
        </mxCell>
        <mxCell id="orzJr2JAbaMpw1yVr_6s-1" value="" style="edgeStyle=orthogonalEdgeStyle;rounded=0;orthogonalLoop=1;jettySize=auto;html=1;exitX=0.5;exitY=1;exitDx=0;exitDy=0;" parent="dNxyNK7c78bLwvsdeMH5-19" source="orzJr2JAbaMpw1yVr_6s-2" target="dNxyNK7c78bLwvsdeMH5-34" edge="1">
          <mxGeometry relative="1" as="geometry">
            <mxPoint x="300" y="210" as="sourcePoint" />
          </mxGeometry>
        </mxCell>
        <mxCell id="uuwwUCo8V9RNHKWbGGmZ-3" value="" style="edgeStyle=orthogonalEdgeStyle;rounded=0;orthogonalLoop=1;jettySize=auto;html=1;entryX=0.5;entryY=0;entryDx=0;entryDy=0;" edge="1" parent="dNxyNK7c78bLwvsdeMH5-19" target="pjozMHKdjuDKzzugaOkP-3">
          <mxGeometry relative="1" as="geometry">
            <mxPoint x="321" y="210" as="sourcePoint" />
            <mxPoint x="261" y="270" as="targetPoint" />
            <Array as="points">
              <mxPoint x="321" y="210" />
            </Array>
          </mxGeometry>
        </mxCell>
        <mxCell id="uuwwUCo8V9RNHKWbGGmZ-9" value="" style="edgeStyle=orthogonalEdgeStyle;rounded=0;orthogonalLoop=1;jettySize=auto;html=1;endArrow=classic;endFill=1;entryX=0.25;entryY=1;entryDx=0;entryDy=0;exitX=1;exitY=0.5;exitDx=0;exitDy=0;" edge="1" parent="dNxyNK7c78bLwvsdeMH5-19" source="dNxyNK7c78bLwvsdeMH5-34" target="pjozMHKdjuDKzzugaOkP-6">
          <mxGeometry relative="1" as="geometry">
            <mxPoint x="446" y="220" as="targetPoint" />
            <mxPoint x="371" y="420" as="sourcePoint" />
            <Array as="points">
              <mxPoint x="410" y="290" />
              <mxPoint x="410" y="220" />
              <mxPoint x="411" y="220" />
            </Array>
          </mxGeometry>
        </mxCell>
      </root>
    </mxGraphModel>
  </diagram>
</mxfile>
